<svg id="layer1" xmlns="http://www.w3.org/2000/svg" width="106.284" height="24.715" viewBox="0 0 106.284 24.715">
  <g id="g43" transform="translate(0 0)">
    <g id="g32" transform="translate(26.522 2.051)">
      <path id="path12" d="M51.725,77.031V60.668H61.4V62.72H53.728v5.031h6.887V69.8H53.728v5.129h8.206v2.051H51.725Z" transform="translate(-51.725 -60.668)" fill="#e43225"/>
      <path id="path14" d="M66.989,74.949,63.668,70.6l-3.321,4.347H58l4.542-5.812-4.787-6.008H60.4l3.273,4.494,3.321-4.494h2.589l-4.542,6.008,4.3,5.812Z" transform="translate(-46.621 -58.586)" fill="#e43225"/>
      <path id="path16" d="M66.692,73.325v8.059h-2V69.32A6.226,6.226,0,0,1,70.7,62.97c3.712,0,6.5,2.344,6.5,6.2a6.125,6.125,0,0,1-6.057,6.35c-1.563,0-3.663-.684-4.445-2.2Zm8.4-4.152c0-2.638-1.71-4.2-4.738-4.054-1.465.049-3.712,1.123-3.517,4.884a4.018,4.018,0,0,0,4.1,3.517C73.335,73.52,75.094,72.153,75.094,69.173Z" transform="translate(-40.756 -58.721)" fill="#e43225"/>
      <path id="path18" d="M72.389,75.061V63.241h2v1.27A5.238,5.238,0,0,1,78.495,63v2.149c-.244-.049-2.638-.342-4.1,2.784v7.18h-2Z" transform="translate(-34.242 -58.698)" fill="#e43225"/>
      <path id="path20" d="M75.987,69.173a5.92,5.92,0,0,1,5.812-6.2c4.2,0,5.764,2.784,5.764,6.35V70.3H78.185a3.731,3.731,0,0,0,4.005,3.37,4.4,4.4,0,0,0,3.273-1.416l1.319,1.368a6.643,6.643,0,0,1-4.689,1.954,6.061,6.061,0,0,1-6.105-6.4Zm5.666-4.2a3.616,3.616,0,0,0-3.468,3.468h7.278A3.483,3.483,0,0,0,81.653,64.973Z" transform="translate(-31.198 -58.721)" fill="#e43225"/>
      <path id="path22" d="M82.814,73.448l1.465-1.319a6.616,6.616,0,0,0,.83.83,2.491,2.491,0,0,0,1.123.586c1.27.342,3.566.244,3.761-1.514.1-.977-.635-1.514-1.465-1.856-1.075-.391-2.247-.537-3.321-1.026a2.994,2.994,0,0,1-2-2.833c0-3.566,5.08-4.152,7.375-2.491.1.1,1.221,1.123,1.172,1.123l-1.465,1.172A3.3,3.3,0,0,0,87.307,64.8c-.781,0-1.856.342-2.051,1.172-.293,1.172,1.026,1.612,1.9,1.856a12.027,12.027,0,0,1,3.468,1.123A3.577,3.577,0,0,1,91.85,73.2c-.586,1.612-2.345,2.247-3.908,2.3a6.044,6.044,0,0,1-4.787-1.807C83.058,73.693,82.814,73.448,82.814,73.448Z" transform="translate(-25.422 -58.746)" fill="#e43225"/>
      <path id="path24" d="M88.4,73.448l1.465-1.319a6.615,6.615,0,0,0,.83.83,2.491,2.491,0,0,0,1.123.586c1.27.342,3.566.244,3.761-1.514.1-.977-.635-1.514-1.465-1.856-1.075-.391-2.247-.537-3.321-1.026a2.994,2.994,0,0,1-2-2.833c0-3.566,5.08-4.152,7.375-2.491.1.1,1.221,1.123,1.172,1.123l-1.465,1.172A3.3,3.3,0,0,0,92.89,64.8c-.782,0-1.856.342-2.051,1.172-.293,1.172,1.026,1.612,1.9,1.856a12.026,12.026,0,0,1,3.468,1.123A3.577,3.577,0,0,1,97.432,73.2c-.586,1.612-2.345,2.247-3.908,2.3a6.044,6.044,0,0,1-4.787-1.807C88.64,73.693,88.4,73.448,88.4,73.448Z" transform="translate(-20.699 -58.746)" fill="#e43225"/>
      <g id="g30" transform="translate(76.783 3.028)">
        <path id="path26" d="M93.757,63.823v-1.27h-.44v-.244H94.49v.244h-.44v1.27Z" transform="translate(-93.317 -62.309)" fill="#e43225"/>
        <path id="path28" d="M95.306,63.823V62.651l-.44,1.172h-.1l-.44-1.172v1.172h-.244V62.309h.391l.391,1.026.391-1.026h.391v1.514Z" transform="translate(-92.668 -62.309)" fill="#e43225"/>
      </g>
    </g>
    <g id="g41" transform="translate(0 0)">
      <path id="path34" d="M50.3,77.031l-1.465-3.908H40.924l-1.465,3.908h-2.1l6.35-16.363H46l6.3,16.363ZM44.783,63.013,41.8,71.121h6.2Z" transform="translate(-37.359 -58.617)" fill="#f7971d"/>
      <path id="path36" d="M46.169,77.031V60.668h2.051V77.031Z" transform="translate(-29.904 -58.617)" fill="#f7971d"/>
      <path id="path38" d="M48.947,74.837V63.261H51V74.837Z" transform="translate(-27.554 -56.423)" fill="#f7971d"/>
      <path id="XMLID_1_" d="M53.893,62.634v-.2a2.987,2.987,0,0,1-2.882-2.882h-.293a2.987,2.987,0,0,1-2.882,2.882v.2a2.987,2.987,0,0,1,2.882,2.882h.293A2.987,2.987,0,0,1,53.893,62.634Z" transform="translate(-28.494 -59.557)" fill="#f7971d"/>
    </g>
  </g>
</svg>
