<svg id="Amazon_logo" xmlns="http://www.w3.org/2000/svg" width="94.57" height="28.499" viewBox="0 0 94.57 28.499">
  <path id="path8" d="M186.056,196.372c-5.5,4.051-13.461,6.212-20.319,6.212a36.769,36.769,0,0,1-24.823-9.472c-.515-.465-.054-1.1.564-.737a49.96,49.96,0,0,0,24.835,6.587,49.385,49.385,0,0,0,18.944-3.874c.93-.4,1.708.609.8,1.284" transform="translate(-127.387 -174.085)" fill="#f90" fill-rule="evenodd"/>
  <path id="path10" d="M578.762,184.294c-.7-.9-4.643-.424-6.414-.214-.539.066-.622-.4-.136-.741,3.141-2.211,8.295-1.573,8.9-.832s-.156,5.911-3.108,8.377c-.453.379-.885.177-.683-.325.663-1.655,2.149-5.364,1.445-6.265" transform="translate(-517.808 -164.621)" fill="#f90" fill-rule="evenodd"/>
  <path id="path12" d="M572.784,7.132V4.984a.53.53,0,0,1,.543-.543h9.62a.536.536,0,0,1,.556.543v1.84a3.028,3.028,0,0,1-.725,1.35l-4.985,7.118a10.622,10.622,0,0,1,5.487,1.177.979.979,0,0,1,.51.836V19.6c0,.313-.346.679-.708.49a11.082,11.082,0,0,0-10.164.016c-.333.181-.683-.181-.683-.494V17.432a2.6,2.6,0,0,1,.354-1.478l5.776-8.283H573.34a.532.532,0,0,1-.556-.539" transform="translate(-518.121 -4.02)" fill-rule="evenodd"/>
  <path id="path14" d="M173.911,17.9h-2.927a.553.553,0,0,1-.523-.5V2.38a.549.549,0,0,1,.564-.539h2.729a.551.551,0,0,1,.531.5V4.307h.054a3.863,3.863,0,0,1,3.853-2.783c1.832,0,2.976.885,3.8,2.783a4.323,4.323,0,0,1,7.43-1.14c.926,1.264.737,3.1.737,4.709l0,9.48a.553.553,0,0,1-.564.543h-2.923a.556.556,0,0,1-.527-.543V9.395a18.8,18.8,0,0,0-.082-2.816,1.524,1.524,0,0,0-1.721-1.293,1.944,1.944,0,0,0-1.75,1.231,9.094,9.094,0,0,0-.272,2.877v7.961a.553.553,0,0,1-.564.543H178.83a.553.553,0,0,1-.527-.543l0-7.961c0-1.675.276-4.141-1.8-4.141-2.1,0-2.021,2.4-2.021,4.141v7.961a.553.553,0,0,1-.564.543" transform="translate(-154.34 -1.38)" fill-rule="evenodd"/>
  <path id="path16" d="M715.9,1.524c4.343,0,6.694,3.73,6.694,8.472,0,4.582-2.6,8.217-6.694,8.217-4.265,0-6.587-3.73-6.587-8.377,0-4.676,2.351-8.311,6.587-8.311m.025,3.067c-2.157,0-2.293,2.939-2.293,4.771s-.029,5.755,2.268,5.755c2.268,0,2.375-3.162,2.375-5.088a13.888,13.888,0,0,0-.436-3.985,1.831,1.831,0,0,0-1.914-1.453" transform="translate(-642.231 -1.38)" fill-rule="evenodd"/>
  <path id="path18" d="M876.3,17.9h-2.914a.556.556,0,0,1-.527-.543l0-15.025a.554.554,0,0,1,.564-.49h2.713a.56.56,0,0,1,.523.42v2.3h.053c.819-2.054,1.968-3.034,3.989-3.034a3.84,3.84,0,0,1,3.417,1.77c.766,1.2.766,3.223.766,4.676v9.456a.562.562,0,0,1-.564.473h-2.935a.554.554,0,0,1-.519-.473V9.267c0-1.643.189-4.047-1.832-4.047a1.913,1.913,0,0,0-1.692,1.2,6.65,6.65,0,0,0-.465,2.845v8.089a.563.563,0,0,1-.572.543" transform="translate(-790.305 -1.38)" fill-rule="evenodd"/>
  <path id="path28" d="M414.361,9.345a5.726,5.726,0,0,1-.547,3.1,2.378,2.378,0,0,1-2.025,1.33c-1.124,0-1.782-.856-1.782-2.12,0-2.495,2.235-2.947,4.355-2.947v.634m2.952,7.134a.611.611,0,0,1-.692.07,7.132,7.132,0,0,1-1.68-1.951,5.8,5.8,0,0,1-4.825,2.128c-2.466,0-4.38-1.519-4.38-4.561a4.967,4.967,0,0,1,3.12-4.783,20.28,20.28,0,0,1,5.5-1.017V5.986A3.733,3.733,0,0,0,414,3.866a1.948,1.948,0,0,0-1.643-.762,2.227,2.227,0,0,0-2.351,1.758.612.612,0,0,1-.51.535l-2.836-.3a.516.516,0,0,1-.436-.613C406.877,1.038,409.99,0,412.772,0a6.636,6.636,0,0,1,4.409,1.457c1.424,1.33,1.288,3.1,1.288,5.035v4.561a4,4,0,0,0,1.1,2.713.553.553,0,0,1-.012.778c-.6.5-1.659,1.424-2.244,1.943l0-.008" transform="translate(-367.367 0)" fill-rule="evenodd"/>
  <path id="path30" d="M8.624,9.345a5.725,5.725,0,0,1-.548,3.1,2.373,2.373,0,0,1-2.025,1.33c-1.124,0-1.778-.856-1.778-2.12,0-2.495,2.235-2.947,4.351-2.947v.634m2.952,7.134a.611.611,0,0,1-.692.07A7.206,7.206,0,0,1,9.2,14.6,5.791,5.791,0,0,1,4.38,16.726C1.918,16.726,0,15.207,0,12.165A4.973,4.973,0,0,1,3.12,7.381a20.28,20.28,0,0,1,5.5-1.017V5.986a3.766,3.766,0,0,0-.354-2.12A1.958,1.958,0,0,0,6.628,3.1,2.231,2.231,0,0,0,4.273,4.862a.612.612,0,0,1-.506.535l-2.84-.3A.518.518,0,0,1,.49,4.479C1.144,1.038,4.252,0,7.035,0a6.636,6.636,0,0,1,4.409,1.457c1.424,1.33,1.288,3.1,1.288,5.035v4.561a4,4,0,0,0,1.1,2.713.55.55,0,0,1-.008.778c-.6.5-1.659,1.424-2.244,1.943l-.008-.008" transform="translate(0 0)" fill-rule="evenodd"/>
</svg>
