<svg xmlns="http://www.w3.org/2000/svg" width="35.972" height="42.706" viewBox="0 0 35.972 42.706">
  <path id="path4" d="M35.218,33.281a23.218,23.218,0,0,1-2.3,4.128,20.974,20.974,0,0,1-2.958,3.575,5.737,5.737,0,0,1-3.8,1.674,9.528,9.528,0,0,1-3.511-.838,10.075,10.075,0,0,0-3.78-.836,10.417,10.417,0,0,0-3.887.836,10.459,10.459,0,0,1-3.359.883,5.4,5.4,0,0,1-3.887-1.719,22.023,22.023,0,0,1-3.093-3.7,25.6,25.6,0,0,1-3.271-6.5A23.793,23.793,0,0,1,0,23.041a14.142,14.142,0,0,1,1.857-7.4,10.894,10.894,0,0,1,3.89-3.934,10.463,10.463,0,0,1,5.258-1.484,12.381,12.381,0,0,1,4.067.947,13.075,13.075,0,0,0,3.226.949A19.3,19.3,0,0,0,21.875,11a11.824,11.824,0,0,1,4.862-.863A10.324,10.324,0,0,1,34.825,14.4a9,9,0,0,0-4.771,8.172,9.016,9.016,0,0,0,2.96,6.793,9.728,9.728,0,0,0,2.958,1.94Q35.616,32.334,35.218,33.281ZM26.978.855a9.11,9.11,0,0,1-2.336,5.976c-1.877,2.194-4.147,3.462-6.609,3.262a6.649,6.649,0,0,1-.05-.809,9.36,9.36,0,0,1,2.478-6.039A9.539,9.539,0,0,1,23.48.979,9,9,0,0,1,26.933,0a7.757,7.757,0,0,1,.045.854Z" transform="translate(0 -0.001)"/>
</svg>
