<svg id="EBay_logo" xmlns="http://www.w3.org/2000/svg" width="92.276" height="36.973" viewBox="0 0 92.276 36.973">
  <path id="e" d="M12.032,26.308C5.523,26.308.1,29.07.1,37.4.1,44,3.747,48.156,12.2,48.156c9.95,0,10.588-6.554,10.588-6.554H17.966s-1.034,3.529-6.061,3.529c-4.094,0-7.039-2.766-7.039-6.642H23.292V36.056c0-3.835-2.435-9.747-11.26-9.747Zm-.168,3.109c3.9,0,6.554,2.388,6.554,5.966H4.974C4.974,31.584,8.442,29.417,11.864,29.417Z" transform="translate(-0.1 -18.242)" fill="#e53238"/>
  <path id="b" d="M75.2.1V25.83c0,1.461-.1,3.511-.1,3.511h4.6s.165-1.473.165-2.819c0,0,2.272,3.554,8.449,3.554,6.505,0,10.924-4.516,10.924-10.987,0-6.019-4.059-10.861-10.913-10.861-6.419,0-8.413,3.466-8.413,3.466V.1ZM87.135,11.412c4.417,0,7.226,3.278,7.226,7.678,0,4.718-3.244,7.8-7.195,7.8-4.715,0-7.258-3.681-7.258-7.762C79.909,15.33,82.191,11.412,87.135,11.412Z" transform="translate(-52.015 -0.1)" fill="#0064d2"/>
  <path id="a" d="M163.811,26.308c-9.791,0-10.419,5.361-10.419,6.218h4.874s.256-3.13,5.21-3.13c3.219,0,5.714,1.474,5.714,4.306v1.008h-5.714c-7.586,0-11.6,2.219-11.6,6.722,0,4.432,3.705,6.843,8.713,6.843,6.824,0,9.023-3.771,9.023-3.771,0,1.5.116,2.978.116,2.978h4.333s-.168-1.832-.168-3V34.349c0-6.642-5.358-8.04-10.083-8.04Zm5.378,11.428v1.344c0,1.754-1.082,6.113-7.452,6.113-3.488,0-4.984-1.741-4.984-3.76C156.752,37.76,161.789,37.736,169.188,37.736Z" transform="translate(-105.163 -18.242)" fill="#f5af02"/>
  <path id="y" d="M214.879,29.041h5.483l7.869,15.764,7.851-15.764h4.967l-14.3,28.065h-5.21l4.126-7.824Z" transform="translate(-148.772 -20.133)" fill="#86b817"/>
</svg>
