<svg id="Facebook_Logo__2019_" data-name="Facebook_Logo_(2019)" xmlns="http://www.w3.org/2000/svg" width="103.767" height="20.083" viewBox="0 0 103.767 20.083">
  <path id="Контур_13418" data-name="Контур 13418" d="M7.074,20.274H3.164V10.527H.5V7.353H3.163V5.1C3.163,2.419,4.342.5,8.241.5c.825,0,2.12.166,2.12.166V3.613H9c-1.386,0-1.927.421-1.927,1.587V7.353h3.235l-.288,3.173H7.074ZM16.045,7.1c-.057,0-.116,0-.174,0-3.626,0-5.284,2.727-5.284,6.6,0,4.877,2.152,6.829,5.313,6.829a3.82,3.82,0,0,0,3.719-2.182v1.927h3.719V7.355H19.619V9.342A3.811,3.811,0,0,0,16.045,7.1Zm.946,3.053c1.523,0,2.437,1.062,2.437,2.869l0,1.845a2.472,2.472,0,0,1-2.44,2.642c-2.591,0-2.522-2.8-2.522-3.73C14.469,10.645,15.85,10.153,16.991,10.153Zm7.849,3.663c0-1.57-.075-6.708,6.618-6.708a6.629,6.629,0,0,1,3.809.854l-.9,2.8a5.886,5.886,0,0,0-2.58-.617,2.788,2.788,0,0,0-3.063,2.991l0,1.368a2.854,2.854,0,0,0,3.065,3.056,6.409,6.409,0,0,0,2.556-.623l.9,2.738s-1.026.86-3.767.86c-6.373,0-6.637-4.609-6.637-6.717ZM57.073,7.1c3.626,0,5.311,2.727,5.311,6.6,0,4.877-2.152,6.829-5.313,6.829A4.038,4.038,0,0,1,53.2,18.349v1.927H49.531V.893l3.9-.34V9.167C53.992,7.66,55.842,7.1,57.073,7.1Zm-1.093,3.05c-1.523,0-2.55,1.062-2.55,2.869l0,1.845a2.47,2.47,0,0,0,2.554,2.642c2.591,0,2.522-2.8,2.522-3.73C58.5,10.645,57.121,10.153,55.98,10.153ZM42.032,7.114c-4.112,0-6.283,2.242-6.283,6.227v.74c0,5.171,3.049,6.5,6.684,6.5a10.459,10.459,0,0,0,5.132-.988l-.73-2.632a11.376,11.376,0,0,1-3.935.8c-2.129,0-3.045-.543-3.28-2.589h8.256V13.064c0-4.322-2.437-5.95-5.844-5.95Zm.1,2.635c1.423,0,2.346.873,2.3,2.9h-4.8c.083-2.131,1.078-2.9,2.5-2.9ZM70.158,7.1c-4.223,0-6.446,2.38-6.446,6.644,0,5.851,3.832,6.793,6.453,6.793,3.837,0,6.39-2.066,6.39-6.74,0-4.865-2.87-6.7-6.4-6.7ZM70.1,10.163c1.857,0,2.593,1.39,2.593,2.972V14.5c0,1.916-1.03,3.025-2.6,3.025-1.469,0-2.5-1.037-2.5-3.025v-1.36C67.6,11.015,68.825,10.163,70.1,10.163ZM84.322,7.1c-4.223,0-6.446,2.38-6.446,6.644,0,5.851,3.832,6.793,6.453,6.793,3.837,0,6.39-2.066,6.39-6.74,0-4.865-2.87-6.7-6.4-6.7Zm-.053,3.067c1.857,0,2.593,1.39,2.593,2.972V14.5c0,1.916-1.03,3.025-2.6,3.025-1.469,0-2.5-1.037-2.5-3.025v-1.36C81.761,11.015,82.989,10.163,84.268,10.163Zm7.923,10.111V.893L96.1.553v12.99l3.879-6.19h4.13l-4.047,6.411,4.2,6.51h-4.141L96.1,13.953v6.321Z" transform="translate(-0.5 -0.5)" fill="#1877f2"/>
</svg>
