<svg id="layer1" xmlns="http://www.w3.org/2000/svg" width="103.767" height="42.143" viewBox="0 0 103.767 42.143">
  <path id="path836" d="M108.547,4.138H4.8V-38H108.562V4.138Z" transform="translate(-4.795 38.005)" fill="#0058a3"/>
  <path id="path838" d="M20.727-.263c0,10.186,20.893,18.648,49.861,18.648S120.434,9.923,120.434-.263,99.541-18.911,70.588-18.911,20.727-10.449,20.727-.263Z" transform="translate(-18.704 21.334)" fill="#ffdb00"/>
  <path id="path840" d="M116.375,58.609a2.77,2.77,0,0,0-.223,1.323v5.576s2.989-3.881,3.673-4.8a5.575,5.575,0,0,0,1.16-2.1h9.755a10.622,10.622,0,0,0-2.022,1.993l-3.569,4.357s4.506,6.855,5.086,7.733a8.525,8.525,0,0,0,1.1,1.323H120.107a5.131,5.131,0,0,0-.907-2.067c-.476-.714-3.048-4.625-3.048-4.625v5.368a2.77,2.77,0,0,0,.223,1.323h-9.354a2.77,2.77,0,0,0,.223-1.323V59.933a2.77,2.77,0,0,0-.223-1.323Zm34.633,0H132.955a2.77,2.77,0,0,1,.223,1.323V72.692a2.77,2.77,0,0,1-.223,1.323h18.053V69.747a2.77,2.77,0,0,1-1.323.223h-7.6V67.948h7.3V64.691h-7.3V62.654h7.6a2.947,2.947,0,0,1,1.323.208ZM176.02,72.692a3.723,3.723,0,0,0,.729,1.323h-9.785a2.857,2.857,0,0,0-.3-1.323s-.149-.357-.357-.877l-.089-.223h-5.636l-.089.238s-.164.431-.312.877a3,3,0,0,0-.253,1.323h-7.718a3.9,3.9,0,0,0,.7-1.323l4.625-12.759a2.819,2.819,0,0,0,.268-1.323h13.041a2.259,2.259,0,0,0,.283,1.323c.387.967,4.565,11.882,4.892,12.744m-11.034-4.357-1.368-3.569a7.888,7.888,0,0,1-.3-1.011,5.961,5.961,0,0,1-.268,1.011c-.045.149-.625,1.71-1.294,3.569Zm-62.62-8.4a2.77,2.77,0,0,1,.223-1.323H92.418a2.77,2.77,0,0,1,.223,1.323V72.692a2.77,2.77,0,0,1-.223,1.323H102.59a2.77,2.77,0,0,1-.223-1.323Zm70.531-.1a2.03,2.03,0,1,0,4.06.1v-.1a1.981,1.981,0,0,0-1.948-2.022h-.074a1.94,1.94,0,0,0-2.022,1.889.145.145,0,0,0-.015.134m3.643,0a1.622,1.622,0,1,1-3.242.089v-.1a1.562,1.562,0,0,1,1.5-1.621h.119a1.593,1.593,0,0,1,1.621,1.561v.074m-.625,1.219h-.4l-.476-.862h-.52v.862h-.357V58.609h.907a.778.778,0,0,1,.758.788.815.815,0,0,1-.431.714Zm-.907-1.219a.411.411,0,0,0,.446-.4.42.42,0,0,0-.4-.446h-.535v.862h.491" transform="translate(-81.295 -45.642)" fill="#0058a3"/>
</svg>
