<svg xmlns="http://www.w3.org/2000/svg" width="103.767" height="28.044" viewBox="0 0 103.767 28.044">
  <path id="Netflix_2015_logo" d="M14.268,26.236c-1.561.274-3.149.356-4.793.575L4.464,12.132V27.441c-1.561.164-2.985.383-4.464.6V0H4.163l5.7,15.912V0h4.409V26.236ZM22.895,10.27c1.7,0,4.3-.082,5.861-.082v4.382c-1.945,0-4.217,0-5.861.082V21.17c2.574-.164,5.149-.384,7.75-.466v4.217l-12.132.959V0H30.645V4.382h-7.75ZM46.94,4.382H42.394V24.538c-1.479,0-2.958,0-4.382.055V4.382H33.466V0H46.94V4.382Zm7.12,5.587h6V14.35h-6v9.941h-4.3V0H62V4.382H54.06V9.969ZM69.123,20.457c2.492.055,5.012.247,7.449.383v4.327c-3.916-.247-7.832-.493-11.831-.575V0h4.382V20.457Zm11.146,5.012c1.4.082,2.876.164,4.3.329V0h-4.3ZM103.767,0l-5.56,13.337,5.56,14.706c-1.643-.219-3.286-.52-4.93-.794l-3.149-8.106-3.2,7.449c-1.589-.274-3.122-.356-4.71-.575l5.642-12.844L88.321,0h4.71l2.876,7.367L98.974,0h4.793Z" transform="translate(0 0)" fill="#d81f26"/>
</svg>
