<svg xmlns="http://www.w3.org/2000/svg" width="46.251" height="37.571" viewBox="0 0 46.251 37.571">
  <g id="Livello_x0020_1" transform="translate(2)">
    <path id="Контур_13441" data-name="Контур 13441" d="M44.251,4.451A19.037,19.037,0,0,1,38.8,5.941,9.488,9.488,0,0,0,42.967.69a19.013,19.013,0,0,1-6.024,2.3A9.494,9.494,0,0,0,20.529,9.488a9.253,9.253,0,0,0,.248,2.16A26.92,26.92,0,0,1,1.222,1.732,9.492,9.492,0,0,0,4.162,14.393a9.466,9.466,0,0,1-4.3-1.187v.117a9.491,9.491,0,0,0,7.611,9.3,9.611,9.611,0,0,1-2.5.331,9.512,9.512,0,0,1-1.787-.173,9.5,9.5,0,0,0,8.86,6.59A19.03,19.03,0,0,1,.263,33.437,20.444,20.444,0,0,1-2,33.306a26.851,26.851,0,0,0,14.545,4.264c17.45,0,26.993-14.456,26.993-26.993,0-.414-.007-.821-.028-1.228a19.189,19.189,0,0,0,4.733-4.913Z" transform="translate(0 0)" fill="#41abe1" fill-rule="evenodd"/>
  </g>
</svg>
