<svg xmlns="http://www.w3.org/2000/svg" width="111.736" height="24.989" viewBox="0 0 111.736 24.989">
  <g id="YouTube_Logo_2017" transform="translate(-1.817 -0.4)">
    <path id="Контур_13436" data-name="Контур 13436" d="M36.71,4.313a4.485,4.485,0,0,0-3.158-3.158C30.783.4,19.639.4,19.639.4S8.495.423,5.726,1.178A4.485,4.485,0,0,0,2.568,4.336c-.838,4.92-1.162,12.416.023,17.14a4.485,4.485,0,0,0,3.158,3.158c2.769.755,13.913.755,13.913.755s11.144,0,13.913-.755a4.485,4.485,0,0,0,3.158-3.158C37.616,16.549,37.888,9.057,36.71,4.313Z" fill="red"/>
    <path id="Контур_13437" data-name="Контур 13437" d="M64.2,42.309l9.245-5.355L64.2,31.6Z" transform="translate(-48.108 -24.06)" fill="#fff"/>
    <g id="Сгруппировать_8646" data-name="Сгруппировать 8646" transform="translate(40.989 1.384)">
      <path id="Контур_13438" data-name="Контур 13438" d="M185.563,29.138a3.882,3.882,0,0,1-1.51-2.22,14.592,14.592,0,0,1-.435-4V20.649a13.056,13.056,0,0,1,.5-4.05,3.948,3.948,0,0,1,1.6-2.22,5.261,5.261,0,0,1,2.838-.709,4.779,4.779,0,0,1,2.769.709,4.138,4.138,0,0,1,1.533,2.22,13.717,13.717,0,0,1,.481,4.027v2.265a13.548,13.548,0,0,1-.481,4,4.021,4.021,0,0,1-1.533,2.22,5.235,5.235,0,0,1-2.86.709A5.11,5.11,0,0,1,185.563,29.138Zm3.959-2.449a7.308,7.308,0,0,0,.3-2.494V19.321a7.092,7.092,0,0,0-.3-2.449,1.056,1.056,0,0,0-1.03-.778,1.03,1.03,0,0,0-1.007.778,7.18,7.18,0,0,0-.3,2.449V24.2a8.094,8.094,0,0,0,.275,2.494,1.024,1.024,0,0,0,1.03.755A1.061,1.061,0,0,0,189.522,26.69Zm50.16-3.73v.8l.092,2.265a2.277,2.277,0,0,0,.366,1.1,1.256,1.256,0,0,0,1.945-.275,5.275,5.275,0,0,0,.32-2.037l3.043.183a3.723,3.723,0,0,1,.023.549,4.083,4.083,0,0,1-1.19,3.227,4.844,4.844,0,0,1-3.341,1.076,3.984,3.984,0,0,1-3.638-1.625,9.6,9.6,0,0,1-1.053-5.034V20.42c.078-3.89.762-6.739,4.783-6.751a4.9,4.9,0,0,1,2.769.664,3.593,3.593,0,0,1,1.373,2.059,14.446,14.446,0,0,1,.389,3.867v2.677h-5.881Zm.458-6.59a2.177,2.177,0,0,0-.366,1.076c-.069.5-.092,2.288-.092,2.288v1.121h2.563V19.733c0,1.121-.023-1.762-.092-2.288a2.107,2.107,0,0,0-.366-1.1,1.051,1.051,0,0,0-.824-.32A1.068,1.068,0,0,0,240.14,16.369ZM177,22.662,173,8.2h3.5s1.636,7.254,2.2,10.664h.092c.636-3.62,2.243-10.664,2.243-10.664h3.5l-4.05,14.439v6.934h-3.455V22.662Z" transform="translate(-173 -7.399)" fill="#282828"/>
      <path id="A" d="M279.5,33.4V49.029h-2.746l-.3-1.922h-.069a3.624,3.624,0,0,1-3.364,2.174c-2.693-.007-2.993-2.288-3.021-4.211V33.4h3.524V44.865a3.4,3.4,0,0,0,.229,1.487c.325.636,1.167.474,1.625.16A1.831,1.831,0,0,0,276,45.8V33.4Z" transform="translate(-247.803 -26.832)" fill="#282828"/>
      <path id="Контур_13439" data-name="Контур 13439" d="M318.135,8.338h-3.5V26.9H311.2V8.338h-3.5V5.5h10.412V8.338Zm20.114,5.423a4.033,4.033,0,0,0-1.03-2.151,2.8,2.8,0,0,0-1.968-.664,3.227,3.227,0,0,0-1.808.549,3.767,3.767,0,0,0-1.3,1.442h-.023V4.7H328.73V26.874h2.906L332,25.387h.069a3.2,3.2,0,0,0,1.213,1.259,3.721,3.721,0,0,0,1.808.458,2.788,2.788,0,0,0,2.632-1.648,12,12,0,0,0,.847-5.126V17.858A20.965,20.965,0,0,0,338.249,13.762Zm-3.227,6.384a20.07,20.07,0,0,1-.137,2.677A2.8,2.8,0,0,1,334.4,24.2a1.107,1.107,0,0,1-.892.412,1.544,1.544,0,0,1-1.4-.824V14.906a2.122,2.122,0,0,1,.618-1.053,1.122,1.122,0,0,1,1.762,0,3.275,3.275,0,0,1,.412,1.419c.069.664.114,1.6.114,2.838Z" transform="translate(-276.876 -4.7)" fill="#282828"/>
    </g>
    <path id="Контур_13440" data-name="Контур 13440" d="M279.5,33.4V49.029h-2.746l-.3-1.922h-.069a3.624,3.624,0,0,1-3.364,2.174c-2.693-.007-2.993-2.288-3.021-4.211V33.4h3.524V44.865a3.4,3.4,0,0,0,.229,1.487c.325.636,1.167.474,1.625.16A1.831,1.831,0,0,0,276,45.8V33.4Z" transform="translate(-188.759 -25.448)" fill="#282828"/>
  </g>
</svg>
