<svg xmlns="http://www.w3.org/2000/svg" xmlns:xlink="http://www.w3.org/1999/xlink" width="109.793" height="38" viewBox="0 0 109.793 38">
  <defs>
    <clipPath id="clip-path">
      <circle id="Эллипс_836" data-name="Эллипс 836" cx="19" cy="19" r="19" transform="translate(0 0.46)"/>
    </clipPath>
    <clipPath id="clip-path-2">
      <circle id="Эллипс_837" data-name="Эллипс 837" cx="18.668" cy="18.668" r="18.668"/>
    </clipPath>
    <clipPath id="clip-path-3">
      <circle id="Эллипс_838" data-name="Эллипс 838" cx="17.173" cy="17.173" r="17.173"/>
    </clipPath>
    <clipPath id="clip-path-4">
      <path id="Контур_13452" data-name="Контур 13452" d="M-521.867-42.146l4.856-3.549c.425-.346.748-.268.748.37V-34.5c0,.716-.4.637-.748.37l-4.856-3.549ZM-538.3-45.294v8.059a3.305,3.305,0,0,0,3.321,3.29h11.766a.61.61,0,0,0,.606-.6v-8.067a3.305,3.305,0,0,0-3.321-3.29h-11.766A.617.617,0,0,0-538.3-45.294Z" transform="translate(538.3 45.9)"/>
    </clipPath>
  </defs>
  <g id="zoom-seeklogo.com-1" transform="translate(637.906 211.737)">
    <path id="Контур_13442" data-name="Контур 13442" d="M100.269-64.8h-.008A7.462,7.462,0,0,0,92.8-57.339a7.463,7.463,0,0,0,7.461,7.469,7.463,7.463,0,0,0,7.469-7.461A7.463,7.463,0,0,0,100.269-64.8Zm3.156,10.633a4.484,4.484,0,0,1-6.336-.008,4.489,4.489,0,0,1,0-6.328,4.477,4.477,0,0,1,6.336-.008l.008.008A4.47,4.47,0,0,1,103.425-54.167Z" transform="translate(-673.195 -135.636)" fill="#4a8cff"/>
    <path id="Контур_13443" data-name="Контур 13443" d="M-74.805-52.906l-.748-.039h-6.721l8.964-8.964-.039-.748a2.263,2.263,0,0,0-2.2-2.2L-76.3-64.9H-87.5l.039.748a2.314,2.314,0,0,0,2.2,2.2l.748.039h6.721l-8.964,8.964.039.748a2.285,2.285,0,0,0,2.2,2.2l.748.039h11.2L-72.6-50.7A2.3,2.3,0,0,0-74.805-52.906Z" transform="translate(-507.085 -135.543)" fill="#4a8cff"/>
    <path id="Контур_13444" data-name="Контур 13444" d="M138.365-25.694a4.484,4.484,0,0,0-6.336.008,4.489,4.489,0,0,0,0,6.328,4.477,4.477,0,0,0,6.336.008,4.477,4.477,0,0,0,.008-6.336Z" transform="translate(-708.135 -170.461)" fill="#fff"/>
    <path id="Контур_13445" data-name="Контур 13445" d="M506.33-64.817a5.977,5.977,0,0,0-4.478,2.023,5.97,5.97,0,0,0-7.823-1,4.074,4.074,0,0,0-2.629-1.023v14.938l.748-.039a2.252,2.252,0,0,0,2.2-2.2l.039-.748V-58.1l.039-.748a3.308,3.308,0,0,1,.37-1.5,2.981,2.981,0,0,1,4.077-1.086,2.994,2.994,0,0,1,1.086,1.086h-.008a3.21,3.21,0,0,1,.37,1.5l.039.748v5.226l.039.748a2.29,2.29,0,0,0,2.2,2.2l.748.039V-58.1l.039-.748a3.217,3.217,0,0,1,.37-1.5,2.984,2.984,0,0,1,4.085-1.078,2.994,2.994,0,0,1,1.086,1.086,3.3,3.3,0,0,1,.362,1.5l.039.748v5.226l.039.748a2.284,2.284,0,0,0,2.2,2.2l.748.039v-8.964A5.987,5.987,0,0,0,506.33-64.817Z" transform="translate(-1040.424 -135.619)" fill="#4a8cff"/>
    <path id="Контур_13446" data-name="Контур 13446" d="M304.807-62.612a7.464,7.464,0,0,0-5.281-2.188,7.464,7.464,0,0,0-5.281,2.188,7.47,7.47,0,0,0,.008,10.562,7.47,7.47,0,0,0,10.562-.008,7.453,7.453,0,0,0-.008-10.554Zm-2.117,8.445a4.484,4.484,0,0,1-6.336-.008,4.489,4.489,0,0,1,0-6.328,4.477,4.477,0,0,1,6.336-.008l.008.008A4.47,4.47,0,0,1,302.69-54.167Z" transform="translate(-856.775 -135.636)" fill="#4a8cff"/>
    <path id="Контур_13447" data-name="Контур 13447" d="M337.665-25.694a4.484,4.484,0,0,0-6.336.008,4.489,4.489,0,0,0,0,6.328,4.477,4.477,0,0,0,6.336.008,4.477,4.477,0,0,0,.008-6.336Z" transform="translate(-891.749 -170.461)" fill="#fff"/>
    <g id="Сгруппировать_8648" data-name="Сгруппировать 8648" transform="translate(-637.906 -212.197)">
      <g id="Сгруппировать_8647" data-name="Сгруппировать 8647" transform="translate(0 0)" clip-path="url(#clip-path)">
        <path id="Контур_13448" data-name="Контур 13448" d="M-649.8-223.8h39.957v39.957H-649.8Z" transform="translate(648.867 223.048)" fill="#e5e5e4"/>
      </g>
    </g>
    <g id="Сгруппировать_8650" data-name="Сгруппировать 8650" transform="translate(-637.524 -211.635)">
      <g id="Сгруппировать_8649" data-name="Сгруппировать 8649" transform="translate(0 0)" clip-path="url(#clip-path-2)">
        <path id="Контур_13449" data-name="Контур 13449" d="M-645-219h39.209v39.209H-645Z" transform="translate(644.063 218.063)" fill="#fff"/>
      </g>
    </g>
    <g id="Сгруппировать_8652" data-name="Сгруппировать 8652" transform="translate(-636.029 -210.14)">
      <g id="Сгруппировать_8651" data-name="Сгруппировать 8651" transform="translate(0 0)" clip-path="url(#clip-path-3)">
        <path id="Контур_13450" data-name="Контур 13450" d="M-626-200h36.219v36.219H-626Z" transform="translate(625.063 199.063)" fill="#4a8cff"/>
      </g>
    </g>
    <g id="Сгруппировать_8654" data-name="Сгруппировать 8654" transform="translate(-630.064 -198.948)">
      <g id="Сгруппировать_8653" data-name="Сгруппировать 8653" transform="translate(0 0)" clip-path="url(#clip-path-4)">
        <path id="Контур_13451" data-name="Контур 13451" d="M-550.1-57.7h23.9v13.812h-23.9Z" transform="translate(549.171 56.771)" fill="#fff"/>
      </g>
    </g>
  </g>
</svg>
